<svg xmlns="http://www.w3.org/2000/svg" version="1.1" xmlns:xlink="http://www.w3.org/1999/xlink" xmlns:svgjs="http://svgjs.dev/svgjs" width="128" height="128" viewBox="0 0 128 128"><g transform="matrix(0.8046875,0,0,0.8046875,12.760752631578946,13.730200015686243)"><svg viewBox="0 0 95 93" data-background-color="#ffffff" preserveAspectRatio="xMidYMid meet" height="125" width="128" xmlns="http://www.w3.org/2000/svg" xmlns:xlink="http://www.w3.org/1999/xlink"><g id="tight-bounds" transform="matrix(1,0,0,1,-0.24049999999999727,-0.021421435862450267)"><svg viewBox="0 0 95.481 93.04284287172489" height="93.04284287172489" width="95.481"><g><svg viewBox="0 0 95.481 93.04284287172489" height="93.04284287172489" width="95.481"><g><svg viewBox="0 0 95.481 93.04284287172489" height="93.04284287172489" width="95.481"><g id="textblocktransform"><svg viewBox="0 0 95.481 93.04284287172489" height="93.04284287172489" width="95.481" id="textblock"><g><svg viewBox="0 0 95.481 93.04284287172489" height="93.04284287172489" width="95.481"><g><svg viewBox="0 0 95.481 93.04284287172489" height="93.04284287172489" width="95.481"><g><svg xmlns="http://www.w3.org/2000/svg" xmlns:xlink="http://www.w3.org/1999/xlink" version="1.1" x="0" y="0" viewBox="11.237569272277579 10.479000000000003 195.31240409381854 190.32499999999996" enable-background="new 0 0 216 216" xml:space="preserve" height="93.04284287172489" width="95.481" class="icon-icon-0" data-fill-palette-color="accent" id="icon-0"><path fill="#bb84e8" d="M205.521 99.284c-0.699-0.161-1.398 0.284-1.572 0.975-0.011 0.04-1.125 4.016-10.766 9.238-4.881 2.643-31.588 17.582-58.746 32.797-1.898-1.092-5.51-3.138-8.635-4.723 4.474-2.489 7.671-4.26 9.066-5.016 10.774-5.837 11.984-10.492 12.086-11.005 0.141-0.7-0.308-1.368-1.004-1.526-0.703-0.16-1.398 0.283-1.572 0.976-0.011 0.04-1.125 4.016-10.766 9.237-1.564 0.846-5.383 2.964-10.727 5.94-0.154-0.067-0.305-0.132-0.45-0.191-1.736-6.688-4.543-24.235-6.487-39.134-0.47-3.61-3.546-6.311-7.187-6.311H94.92l0.927-6.832c2.139-0.672 3.69-2.669 3.69-5.029 0-1.855-0.96-3.482-2.408-4.422l0.419-3.088c0.098-0.722-0.408-1.385-1.129-1.483-0.722-0.097-1.386 0.407-1.484 1.128l-0.354 2.609c-0.105-0.006-0.209-0.016-0.316-0.016H81.6l0.864-10.983h13.778c1.355 0 2.587-0.516 3.521-1.356 0.591-0.365 1.113-0.861 1.502-1.493l7.284-11.803 30.657 65.29c0.223 0.479 0.697 0.759 1.193 0.759 0.187 0 0.379-0.04 0.559-0.125 0.659-0.31 0.941-1.095 0.633-1.753l-31.389-66.85 1.093-1.771c1.338-2.168 0.665-5.01-1.503-6.348-1.132-0.7-2.448-0.836-3.641-0.508l-1.688-3.594c-0.309-0.659-1.094-0.944-1.752-0.633-0.659 0.309-0.943 1.094-0.634 1.752l1.826 3.888c-0.164 0.188-0.323 0.379-0.458 0.598l-8.273 13.404H83.294l0.419-5.322c0.457-5.806-3.879-10.881-9.683-11.338-5.169-0.406-9.741 2.979-11.014 7.815-1.042-1.462-3.311-2.599-4.921-2.725l-12.629-0.491c-2.203-0.174-4.13 1.472-4.304 3.676l-1.961 44.158c-0.173 2.202 1.473 4.129 3.676 4.303l12.63 0.489c1.461 0.115 2.787-0.578 3.575-1.694l-0.368 4.671c-0.249 3.16 0.93 6.097 2.984 8.197l-0.961 25.973-15.449 24.162c-2.119 1.5-6.919 5.352-10.658 11.748l14.134 12.16c-20.364 11.418-36.433 20.438-36.853 20.672-0.634 0.357-0.861 1.16-0.505 1.795 0.242 0.432 0.69 0.673 1.15 0.673 0.219 0 0.44-0.054 0.644-0.168 0.633-0.355 36.611-20.548 69.403-38.915l-1.414 10.428c-5.881 3.3-9.512 5.338-9.709 5.448-0.634 0.356-0.86 1.159-0.504 1.794 0.242 0.432 0.69 0.674 1.151 0.674 0.219 0 0.44-0.055 0.644-0.168 0.177-0.1 3.121-1.752 7.975-4.476l-1.185 8.731c-0.099 0.722 0.407 1.385 1.128 1.483 0.061 0.008 0.12 0.012 0.178 0.012 0.65 0 1.215-0.479 1.305-1.14l1.452-10.703c28.238-15.842 102.362-57.414 110.814-61.991 10.774-5.836 11.984-10.492 12.086-11.003C206.665 100.11 206.218 99.442 205.521 99.284zM102.423 105.037c1.236 8.925 3.28 22.629 5.314 31.626-0.297 2.153-0.484 4.94-0.259 8.116-6.574 3.675-13.922 7.787-21.552 12.059l7.027-51.801H102.423zM80.77 83.951h12.384l-0.894 6.59H80.251L80.77 83.951zM83.048 158.451c-8.521 4.771-17.298 9.691-25.66 14.379-0.568-1.625-1.64-4.559-2.719-6.834l19.345-30.258c0.696-1.089 1.089-2.344 1.137-3.635l1.026-27.69c0.897 0.398 1.888 0.624 2.934 0.624h11.184L83.048 158.451zM84.069 170.533l1.414-10.425c7.868-4.407 15.48-8.667 22.301-12.479 0.074 0.501 0.153 1.007 0.25 1.521l14.305-0.078C107.558 157.357 93.608 165.182 84.069 170.533zM77.354 31.565c5.822 0 10.542-4.72 10.542-10.543s-4.72-10.543-10.542-10.543c-5.823 0-10.544 4.72-10.544 10.543S71.531 31.565 77.354 31.565z" data-fill-palette-color="accent"></path></svg></g></svg></g></svg></g></svg></g></svg></g></svg></g><defs></defs></svg><rect width="95.481" height="93.04284287172489" fill="none" stroke="none" visibility="hidden"></rect></g></svg></g></svg>